<svg xmlns="http://www.w3.org/2000/svg" width="19.836" height="19.843" viewBox="0 0 19.836 19.843">
  <g id="Grupo_3334" data-name="Grupo 3334" transform="translate(-6017.922 -1096.68)">
    <circle id="Elipse_148" data-name="Elipse 148" cx="4.109" cy="4.109" r="4.109" transform="translate(6023.732 1102.493)" fill="none" stroke="#e6484b" stroke-miterlimit="10" stroke-width="1.5"/>
    <circle id="Elipse_149" data-name="Elipse 149" cx="0.966" cy="0.966" r="0.966" transform="translate(6032.17 1100.34)" fill="none" stroke="#e6484b" stroke-miterlimit="10" stroke-width="1.5"/>
    <path id="Trazado_5468" data-name="Trazado 5468" d="M6029.6,1115.773c-.376,0-.735,0-1.059-.007l-.7-.005s-1.347.011-1.715.011a13.363,13.363,0,0,1-4.51-.481,4.37,4.37,0,0,1-2.463-2.459,17.3,17.3,0,0,1-.477-5.534l.005-.7-.005-.681a17.547,17.547,0,0,1,.475-5.545,4.373,4.373,0,0,1,2.459-2.462,13.146,13.146,0,0,1,4.478-.484c.376,0,.734,0,1.057.007l.7.005s1.348-.011,1.715-.011a13.368,13.368,0,0,1,4.511.481,4.373,4.373,0,0,1,2.462,2.458,17.336,17.336,0,0,1,.477,5.535l0,.7,0,.7a17.307,17.307,0,0,1-.476,5.53,4.37,4.37,0,0,1-2.458,2.46A13.125,13.125,0,0,1,6029.6,1115.773Z" fill="none" stroke="#e6484b" stroke-miterlimit="10" stroke-width="1.5"/>
  </g>
</svg>
