<svg xmlns="http://www.w3.org/2000/svg" width="23.399" height="19.285" viewBox="0 0 23.399 19.285">
  <path id="Trazado_5466" data-name="Trazado 5466" d="M5883.85,1102.143c.013.192.013.39.013.582a12.778,12.778,0,0,1-19.661,10.757,9.5,9.5,0,0,0,1.082.055,9,9,0,0,0,5.57-1.916,4.493,4.493,0,0,1-4.195-3.114,4.83,4.83,0,0,0,2.026-.082,4.488,4.488,0,0,1-3.593-4.407v-.055a4.471,4.471,0,0,0,2.026.568,4.477,4.477,0,0,1-2-3.736,4.431,4.431,0,0,1,.609-2.265,12.745,12.745,0,0,0,9.253,4.694,4.5,4.5,0,0,1,7.657-4.1,8.782,8.782,0,0,0,2.847-1.081,4.474,4.474,0,0,1-1.971,2.47,8.9,8.9,0,0,0,2.587-.7A9.426,9.426,0,0,1,5883.85,1102.143Z" transform="translate(-5863.452 -1096.959)" fill="none" stroke="#e6484b" stroke-linecap="round" stroke-linejoin="round" stroke-width="1.5"/>
</svg>
